<?xml version="1.0" encoding="iso-8859-1"?>
<!-- Generator: Adobe Illustrator 19.0.0, SVG Export Plug-In . SVG Version: 6.00 Build 0)  -->
<svg xmlns="http://www.w3.org/2000/svg" xmlns:xlink="http://www.w3.org/1999/xlink" version="1.1" id="Layer_1" x="0px" y="0px" viewBox="0 0 512 512" style="enable-background:new 0 0 512 512;" xml:space="preserve">
<g>
	<g>
		<g>
			<path d="M384,213.333H181.333v-74.667C181.333,97.493,214.827,64,256,64s74.667,33.493,74.667,74.667v42.667     c0,5.888,4.779,10.667,10.667,10.667H384c5.888,0,10.667-4.779,10.667-10.667v-42.667C394.667,62.208,332.459,0,256,0     S117.333,62.208,117.333,138.667v75.755c-24.32,4.949-42.667,26.517-42.667,52.245v192C74.667,488.064,98.581,512,128,512h256     c29.419,0,53.333-23.936,53.333-53.333v-192C437.333,237.269,413.419,213.333,384,213.333z M138.667,138.667     c0-64.704,52.651-117.333,117.333-117.333s117.333,52.629,117.333,117.333v32H352v-32c0-52.928-43.072-96-96-96s-96,43.072-96,96     v74.667h-21.333V138.667z M416,458.667c0,17.643-14.357,32-32,32H128c-17.643,0-32-14.357-32-32v-192c0-17.643,14.357-32,32-32     h256c17.643,0,32,14.357,32,32V458.667z"/>
			<path d="M256,277.333c-29.419,0-53.333,23.936-53.333,53.333c0,20.267,11.84,38.677,29.675,47.595l-8.235,57.579     c-0.448,3.051,0.469,6.165,2.496,8.491c2.027,2.325,4.971,3.669,8.064,3.669h42.667c3.093,0,6.037-1.365,8.064-3.691     c2.027-2.325,2.944-5.419,2.496-8.491l-8.235-57.579c17.835-8.896,29.675-27.307,29.675-47.573     C309.333,301.269,285.419,277.333,256,277.333z M264.917,361.195c-5.077,1.493-8.299,6.507-7.552,11.755l7.68,53.717h-18.091     l7.68-53.717c0.768-5.248-2.475-10.261-7.552-11.755C233.28,357.163,224,344.896,224,330.667c0-17.643,14.357-32,32-32     s32,14.357,32,32C288,344.896,278.72,357.163,264.917,361.195z"/>
		</g>
	</g>
</g>
<g>
</g>
<g>
</g>
<g>
</g>
<g>
</g>
<g>
</g>
<g>
</g>
<g>
</g>
<g>
</g>
<g>
</g>
<g>
</g>
<g>
</g>
<g>
</g>
<g>
</g>
<g>
</g>
<g>
</g>
</svg>
