<?xml version="1.0" encoding="iso-8859-1"?>
<!-- Generator: Adobe Illustrator 19.0.0, SVG Export Plug-In . SVG Version: 6.00 Build 0)  -->
<svg xmlns="http://www.w3.org/2000/svg" xmlns:xlink="http://www.w3.org/1999/xlink" version="1.1" id="Layer_1" x="0px" y="0px" viewBox="0 0 512 512" style="enable-background:new 0 0 512 512;" xml:space="preserve">
<g>
	<g>
		<path d="M508.872,493.803L243.869,228.779c20.8-24.256,33.472-55.701,33.472-90.112C277.341,62.208,215.133,0,138.675,0    S0.008,62.208,0.008,138.667s62.208,138.667,138.667,138.667c34.389,0,65.835-12.672,90.091-33.472L400.904,416l-35.115,35.115    c-4.16,4.16-4.16,10.923,0,15.083c2.091,2.091,4.821,3.136,7.552,3.136c2.731,0,5.461-1.045,7.531-3.115l35.115-35.115    l27.584,27.584l-35.115,35.115c-4.16,4.16-4.16,10.923,0,15.083c2.091,2.069,4.821,3.115,7.552,3.115    c2.731,0,5.461-1.045,7.531-3.115l35.115-35.115l35.115,35.115c2.112,2.069,4.843,3.115,7.573,3.115    c2.731,0,5.461-1.045,7.531-3.115C513.032,504.725,513.032,497.963,508.872,493.803z M138.675,256    c-64.704,0-117.333-52.629-117.333-117.333S73.971,21.333,138.675,21.333s117.333,52.629,117.333,117.333S203.379,256,138.675,256    z"/>
	</g>
</g>
<g>
</g>
<g>
</g>
<g>
</g>
<g>
</g>
<g>
</g>
<g>
</g>
<g>
</g>
<g>
</g>
<g>
</g>
<g>
</g>
<g>
</g>
<g>
</g>
<g>
</g>
<g>
</g>
<g>
</g>
</svg>
