<?xml version="1.0" encoding="iso-8859-1"?>
<!-- Generator: Adobe Illustrator 19.0.0, SVG Export Plug-In . SVG Version: 6.00 Build 0)  -->
<svg xmlns="http://www.w3.org/2000/svg" xmlns:xlink="http://www.w3.org/1999/xlink" version="1.1" id="Layer_1" x="0px" y="0px" viewBox="0 0 490.667 490.667" style="enable-background:new 0 0 490.667 490.667;" xml:space="preserve">
<g>
	<g>
		<g>
			<path d="M394.667,0H96C43.072,0,0,43.072,0,96v298.667c0,52.928,43.072,96,96,96h298.667c52.928,0,96-43.072,96-96V96     C490.667,43.072,447.595,0,394.667,0z M469.333,394.667c0,41.173-33.493,74.667-74.667,74.667H96     c-41.173,0-74.667-33.493-74.667-74.667V96c0-41.173,33.493-74.667,74.667-74.667h298.667c41.173,0,74.667,33.493,74.667,74.667     V394.667z"/>
			<path d="M320,202.667C320,161.493,286.507,128,245.333,128s-74.667,33.493-74.667,74.667c0,22.528,10.24,43.648,27.712,57.771     l-16.853,89.579c-0.597,3.115,0.235,6.336,2.261,8.789c2.027,2.453,5.035,3.861,8.213,3.861h106.667     c3.179,0,6.187-1.408,8.213-3.84c2.027-2.453,2.859-5.675,2.261-8.789l-16.853-89.579C309.76,246.315,320,225.195,320,202.667z      M270.101,257.813l15.701,83.52h-80.939l15.723-83.52c0.789-4.203-1.024-8.491-4.587-10.859c-15.04-9.963-24-26.517-24-44.288     c0-29.397,23.936-53.333,53.333-53.333s53.333,23.936,53.333,53.333c0,17.771-8.96,34.325-23.979,44.288     C271.104,249.323,269.312,253.611,270.101,257.813z"/>
		</g>
	</g>
</g>
<g>
</g>
<g>
</g>
<g>
</g>
<g>
</g>
<g>
</g>
<g>
</g>
<g>
</g>
<g>
</g>
<g>
</g>
<g>
</g>
<g>
</g>
<g>
</g>
<g>
</g>
<g>
</g>
<g>
</g>
</svg>
